<?xml version="1.0" standalone="no"?>
<!DOCTYPE svg PUBLIC "-//W3C//DTD SVG 20010904//EN"
 "http://www.w3.org/TR/2001/REC-SVG-20010904/DTD/svg10.dtd">
<svg version="1.0" xmlns="http://www.w3.org/2000/svg"
 width="500.000000pt" height="500.000000pt" viewBox="0 0 500.000000 500.000000"
 preserveAspectRatio="xMidYMid meet">
<metadata>
Created by potrace 1.14, written by Peter Selinger 2001-2017
</metadata>
<g transform="translate(0.000000,500.000000) scale(0.100000,-0.100000)"
fill="#000000" stroke="none">
<path d="M2150 4838 c-619 -89 -1199 -461 -1557 -998 -203 -305 -336 -665
-383 -1040 -15 -125 -13 -444 5 -590 97 -777 572 -1462 1255 -1809 333 -169
638 -242 1011 -241 276 0 478 32 729 116 724 241 1303 867 1495 1619 61 237
70 320 70 620 0 239 -3 285 -24 400 -188 1053 -1016 1834 -2051 1935 -152 15
-402 10 -550 -12z m35 -425 c9 -9 21 -27 26 -41 12 -30 61 -474 84 -747 13
-153 21 -199 38 -235 29 -59 73 -84 148 -85 48 0 62 4 84 25 15 14 31 36 36
49 5 13 25 135 45 270 64 449 103 661 131 709 45 78 120 86 163 17 28 -45 44
-142 115 -703 19 -149 40 -282 46 -295 29 -55 81 -93 134 -97 63 -4 94 1 116
19 l24 19 5 347 5 347 33 29 c68 61 154 27 288 -113 197 -207 389 -504 485
-753 69 -176 119 -441 119 -623 0 -516 -177 -1021 -498 -1424 -174 -219 -552
-423 -917 -497 -172 -34 -298 -44 -490 -38 -327 10 -589 74 -860 210 -220 110
-337 201 -449 350 -290 388 -434 794 -453 1277 -12 321 43 583 182 865 102
208 235 392 410 568 231 233 334 287 365 191 7 -19 9 -45 6 -57 -8 -36 -45
-332 -56 -456 -11 -130 -6 -148 57 -200 50 -41 93 -41 157 -1 50 32 76 76 76
128 0 32 109 531 160 731 36 142 47 169 90 205 36 30 71 33 95 9z"/>
</g>
</svg>
